<?xml version="1.0" encoding="UTF-8" standalone="no"?>
<!--
  - Copyright © 2020-2023 EC2U Alliance
  -
  - Licensed under the Apache License, Version 2.0 (the "License");
  - you may not use this file except in compliance with the License.
  - You may obtain a copy of the License at
  -
  -     http://www.apache.org/licenses/LICENSE-2.0
  -
  - Unless required by applicable law or agreed to in writing, software
  - distributed under the License is distributed on an "AS IS" BASIS,
  - WITHOUT WARRANTIES OR CONDITIONS OF ANY KIND, either express or implied.
  - See the License for the specific language governing permissions and
  - limitations under the License.
  -->

<!DOCTYPE svg PUBLIC "-//W3C//DTD SVG 1.1//EN" "http://www.w3.org/Graphics/SVG/1.1/DTD/svg11.dtd">
<svg xmlns="http://www.w3.org/2000/svg" version="1.1" viewBox="21 157 710 212" width="710" height="212">
  <defs>
    <marker orient="auto" overflow="visible" markerUnits="strokeWidth" id="StickArrow_Marker" stroke-linejoin="miter"
            stroke-miterlimit="10" viewBox="-1 -10 26 20" markerWidth="26" markerHeight="20" color="black">
      <g>
        <path d="M 24 0 L 0 0 M 0 -9 L 24 0 L 0 9" fill="none" stroke="currentColor" stroke-width="1"/>
      </g>
    </marker>
  </defs>
  <g id="events-mmt" stroke-dasharray="none" fill="none" fill-opacity="1" stroke-opacity="1" stroke="none">
    <title>events-mmt</title>
    <rect fill="white" x="21" y="157" width="710" height="212"/>
    <g id="events-mmt_Layer_1">
      <title>Layer 1</title>
      <g id="Group_41">
        <g id="Graphic_43">
          <text transform="translate(270.74864 242.53777)" fill="black">
            <tspan font-family="Font Awesome 5 Free" font-weight="bold" font-size="18" fill="black" x="0" y="16">
            </tspan>
          </text>
        </g>
        <g id="Graphic_42">
          <text transform="translate(256.86614 268.53777)" fill="black">
            <tspan font-family="Helvetica Neue" font-size="9" fill="black" x="0" y="9">Knowledge</tspan>
            <tspan font-family="Helvetica Neue" font-size="9" fill="black" x="13.59" y="20.261063">Hub</tspan>
          </text>
        </g>
      </g>
      <g id="Group_38">
        <g id="Graphic_40">
          <text transform="translate(67.52407 277.98396)" fill="black">
            <tspan font-family="Font Awesome 5 Free" font-weight="bold" font-size="18" fill="black" x="0" y="16">
            </tspan>
          </text>
        </g>
        <g id="Graphic_39">
          <text transform="translate(51.93157 303.3965)" fill="black">
            <tspan font-family="Helvetica Neue" font-size="9" fill="black" x="2.2545" y="9">Annotated</tspan>
            <tspan font-family="Helvetica Neue" font-size="9" fill="black" x="657252e-18" y="20.261063">Web Pages</tspan>
          </text>
        </g>
      </g>
      <g id="Group_35">
        <g id="Graphic_37">
          <text transform="translate(376.84103 242.11024)" fill="black">
            <tspan font-family="Font Awesome 5 Free" font-weight="bold" font-size="18" fill="black" x="0" y="16">
            </tspan>
          </text>
        </g>
        <g id="Graphic_36">
          <text transform="translate(361.74804 268.11024)" fill="black">
            <tspan font-family="Helvetica Neue" font-size="9" fill="black" x="7602807e-19" y="9">REST/JSON</tspan>
            <tspan font-family="Helvetica Neue" font-size="9" fill="black" x="7.839" y="20.261063">LDP API</tspan>
          </text>
        </g>
      </g>
      <g id="Line_34">
        <path d="M 292.49864 251.53777 L 306.57307 251.53777 C 306.5901 251.53777 306.60717 251.5377 306.62422 251.53755 L 356.71546 251.11046 C 356.7325 251.1103 356.74956 251.11024 356.7666 251.11024 L 363.99103 251.11024"
              marker-end="url(#StickArrow_Marker)" stroke="black" stroke-linecap="round" stroke-linejoin="round"
              stroke-width=".25"/>
      </g>
      <g id="Group_31">
        <g id="Graphic_33">
          <text transform="translate(542.9189 302.1808)" fill="black">
            <tspan font-family="Font Awesome 5 Free" font-weight="bold" font-size="18" fill="black" x="0" y="16">
            </tspan>
          </text>
        </g>
        <g id="Graphic_32">
          <text transform="translate(534.6614 328.1808)" fill="black">
            <tspan font-family="Helvetica Neue" font-size="9" fill="black" x="7.3665" y="9">MMT</tspan>
            <tspan font-family="Helvetica Neue" font-size="9" fill="black" x="0" y="20.261063">Backend</tspan>
          </text>
        </g>
      </g>
      <g id="Group_28">
        <g id="Graphic_30">
          <text transform="translate(687.1794 175.49606)" fill="black">
            <tspan font-family="Font Awesome 5 Free" font-weight="bold" font-size="18" fill="black" x="0" y="16">
            </tspan>
          </text>
        </g>
        <g id="Graphic_29">
          <text transform="translate(681.3834 201.49606)" fill="black">
            <tspan font-family="Helvetica Neue" font-size="9" fill="black" x="27711167e-20" y="9">EC2U</tspan>
            <tspan font-family="Helvetica Neue" font-size="9" fill="black" x="5.337" y="20.261063">KH</tspan>
          </text>
        </g>
      </g>
      <g id="Group_25">
        <g id="Graphic_27">
          <text transform="translate(65.27407 204.52556)" fill="black">
            <tspan font-family="Font Awesome 5 Free" font-weight="bold" font-size="18" fill="black" x="0" y="16">
            </tspan>
          </text>
        </g>
        <g id="Graphic_26">
          <text transform="translate(41.43307 231.11303)" fill="black">
            <tspan font-family="Helvetica Neue" font-size="9" fill="black" x="8.748" y="9">REST/JSON</tspan>
            <tspan font-family="Helvetica Neue" font-size="9" fill="black" x="34816594e-20" y="20.261063">Linked Event
              API
            </tspan>
          </text>
        </g>
      </g>
      <g id="Group_22">
        <g id="Graphic_24">
          <text transform="translate(625.1804 302.38948)" fill="black">
            <tspan font-family="Font Awesome 5 Free" font-weight="bold" font-size="18" fill="black" x="0" y="16">
            </tspan>
          </text>
        </g>
        <g id="Graphic_23">
          <text transform="translate(622.5074 328.38948)" fill="black">
            <tspan font-family="Helvetica Neue" font-size="9" fill="black" x="1.251" y="9">Local</tspan>
            <tspan font-family="Helvetica Neue" font-size="9" fill="black" x="7.839" y="20.261063">PI</tspan>
          </text>
        </g>
      </g>
      <g id="Group_19">
        <g id="Graphic_21">
          <text transform="translate(683.8044 242.11024)" fill="black">
            <tspan font-family="Font Awesome 5 Free" font-weight="bold" font-size="18" fill="black" x="0" y="16">
            </tspan>
          </text>
        </g>
        <g id="Graphic_20">
          <text transform="translate(675.1284 268.11024)" fill="black">
            <tspan font-family="Helvetica Neue" font-size="9" fill="black" x="0" y="9">3rd Party</tspan>
            <tspan font-family="Helvetica Neue" font-size="9" fill="black" x="3.501" y="20.261063">Service</tspan>
          </text>
        </g>
      </g>
      <g id="Line_18">
        <path d="M 400.84103 251.11024 L 462.94103 251.11024 C 466.25474 251.11024 468.94103 253.79653 468.94103 257.11024 L 468.94103 305.1808 C 468.94103 308.49453 471.6273 311.1808 474.94103 311.1808 L 530.0689 311.1808"
              marker-end="url(#StickArrow_Marker)" stroke="black" stroke-linecap="round" stroke-linejoin="round"
              stroke-width=".25"/>
      </g>
      <g id="Line_17">
        <path d="M 566.9189 311.1808 L 580.9929 311.1808 C 581.01025 311.1808 581.0276 311.1809 581.04494 311.18104 L 605.0544 311.38925 C 605.0717 311.3894 605.08905 311.38948 605.1064 311.38948 L 612.3304 311.38948"
              marker-end="url(#StickArrow_Marker)" stroke="black" stroke-linecap="round" stroke-linejoin="round"
              stroke-width=".25"/>
      </g>
      <g id="Line_16">
        <path d="M 400.84103 251.11024 L 462.94103 251.11024 C 466.25474 251.11024 468.94103 248.42395 468.94103 245.11024 L 468.94103 190.49606 C 468.94103 187.18236 471.6273 184.49606 474.94103 184.49606 L 674.3294 184.49606"
              marker-end="url(#StickArrow_Marker)" stroke="black" stroke-linecap="round" stroke-linejoin="round"
              stroke-width=".25"/>
      </g>
      <g id="Line_15">
        <line x1="400.84103" y1="251.11024" x2="670.9544" y2="251.11024" marker-end="url(#StickArrow_Marker)"
              stroke="black" stroke-linecap="round" stroke-linejoin="round" stroke-width=".25"/>
      </g>
      <g id="Graphic_14">
        <rect x="445.60803" y="276.3498" width="46.666" height="21.261063" fill="white"/>
        <text transform="translate(450.60803 281.3498)" fill="black">
          <tspan font-family="Helvetica Neue" font-size="9" fill="black" x="5400125e-19" y="9">bulk sync</tspan>
        </text>
      </g>
      <g id="Group_11">
        <g id="Graphic_13">
          <text transform="translate(687.1794 302.1808)" fill="black">
            <tspan font-family="Font Awesome 5 Free" font-weight="bold" font-size="18" fill="black" x="0" y="16">
            </tspan>
          </text>
        </g>
        <g id="Graphic_12">
          <text transform="translate(682.9134 328.1808)" fill="black">
            <tspan font-family="Helvetica Neue" font-size="9" fill="black" x="0" y="9">MMT</tspan>
            <tspan font-family="Helvetica Neue" font-size="9" fill="black" x="1.89" y="20.261063">App</tspan>
          </text>
        </g>
      </g>
      <g id="Line_10">
        <path d="M 649.1804 311.38948 L 663.1157 311.38948 C 663.2255 311.38948 663.3352 311.38647 663.4448 311.38045 L 666.915 311.18985 C 667.0246 311.18383 667.1343 311.1808 667.24404 311.1808 L 674.3294 311.1808"
              marker-end="url(#StickArrow_Marker)" stroke="black" stroke-linecap="round" stroke-linejoin="round"
              stroke-width=".25"/>
      </g>
      <g id="Graphic_9">
        <text transform="translate(136.3937 281.2245)" fill="black">
          <tspan font-family="Helvetica Neue" font-size="9" fill="black" x="0" y="9">crawler</tspan>
        </text>
      </g>
      <g id="Line_8">
        <path d="M 87.02407 286.98396 L 101.09857 286.98396 C 101.11557 286.98396 101.13257 286.9839 101.14957 286.98374 L 116.2682 286.85523 C 116.2852 286.8551 116.3022 286.855 116.3192 286.855 L 123.5437 286.855"
              marker-end="url(#StickArrow_Marker)" stroke="black" stroke-linecap="round" stroke-linejoin="round"
              stroke-width=".25"/>
      </g>
      <g id="Line_7">
        <path d="M 170.4107 286.855 L 198.41832 286.855 C 201.73203 286.855 204.41832 284.16872 204.41832 280.855 L 204.41832 273.33076"
              marker-end="url(#StickArrow_Marker)" stroke="black" stroke-linecap="round" stroke-linejoin="round"
              stroke-width=".25"/>
      </g>
      <g id="Graphic_6">
        <text transform="translate(134.9087 207.94767)" fill="black">
          <tspan font-family="Helvetica Neue" font-size="9" fill="black" x="2060574e-19" y="9">pipeline</tspan>
        </text>
      </g>
      <g id="Line_5">
        <path d="M 174.73035 212.01854 L 198.41832 212.01854 C 201.73203 212.01854 204.41832 214.70483 204.41832 218.01854 L 204.41832 229.10863"
              marker-end="url(#StickArrow_Marker)" stroke="black" stroke-linecap="round" stroke-linejoin="round"
              stroke-width=".25"/>
      </g>
      <g id="Graphic_4">
        <text transform="translate(187.41732 239.95863)" fill="black">
          <tspan font-family="Helvetica Neue" font-size="9" fill="black" x="2060574e-19" y="9">mapping</tspan>
          <tspan font-family="Helvetica Neue" font-size="9" fill="black" x="10.8315" y="20.261063">QA</tspan>
        </text>
      </g>
      <g id="Line_3">
        <path d="M 227.41932 251.2197 L 241.41483 251.2197 C 241.4845 251.2197 241.55414 251.2209 241.62375 251.22334 L 250.54422 251.53413 C 250.61383 251.53656 250.68348 251.53777 250.75314 251.53777 L 257.89864 251.53777"
              marker-end="url(#StickArrow_Marker)" stroke="black" stroke-linecap="round" stroke-linejoin="round"
              stroke-width=".25"/>
      </g>
      <g id="Line_2">
        <path d="M 89.27407 213.52556 L 103.36026 213.52556 C 103.36947 213.52556 103.37867 213.52558 103.38788 213.52563 L 114.79489 213.57814 C 114.8041 213.57818 114.8133 213.5782 114.82251 213.5782 L 122.0587 213.5782"
              marker-end="url(#StickArrow_Marker)" stroke="black" stroke-linecap="round" stroke-linejoin="round"
              stroke-width=".25"/>
      </g>
    </g>
  </g>
</svg>
