<?xml version="1.0" encoding="UTF-8" standalone="no"?>
<!DOCTYPE svg PUBLIC "-//W3C//DTD SVG 1.1//EN" "http://www.w3.org/Graphics/SVG/1.1/DTD/svg11.dtd">
<svg version="1.1" xmlns="http://www.w3.org/2000/svg" viewBox="0 0 24 24" width="24" height="24">
	<defs/>
	<metadata>Produced by OmniGraffle 7.18.2\n2021-02-07 10:55:24 +0000</metadata>
	<g id="Logo" stroke-opacity="1" stroke="none" stroke-dasharray="none" fill="none" fill-opacity="1">
		<title>Logo</title>
		<g id="Logo_Layer_1">
			<title>Layer 1</title>
			<g id="Graphic_15">
				<circle cx="12" cy="12" r="12.0000191748228" fill="#1c275d"/>
			</g>
			<g id="Group_20">
				<g id="Graphic_16">
					<path d="M 11.255253 8.773068 L 8.754597 8.773068 L 8.754597 10.362802 L 11.701955 10.362802 L 11.701955 11.501455 L 7.269969 11.501455 L 7.269969 5.125 L 11.710714 5.125 L 11.710714 6.263653 L 8.754597 6.263653 L 8.754597 7.634415 L 11.255253 7.634415 Z"
					      fill="#e9c941"/>
					<path d="M 11.255253 8.773068 L 8.754597 8.773068 L 8.754597 10.362802 L 11.701955 10.362802 L 11.701955 11.501455 L 7.269969 11.501455 L 7.269969 5.125 L 11.710714 5.125 L 11.710714 6.263653 L 8.754597 6.263653 L 8.754597 7.634415 L 11.255253 7.634415 Z"
					      stroke="white" stroke-linecap="round" stroke-linejoin="round" stroke-width=".25"/>
				</g>
				<g id="Graphic_17">
					<path d="M 17.4385 12.498545 L 17.4385 16.617122 C 17.4385 17.333775 17.200339 17.889245 16.724009 18.283548 C 16.24768 18.677851 15.623855 18.875 14.852517 18.875 C 14.072545 18.875 13.443684 18.677851 12.965915 18.283548 C 12.488147 17.889245 12.249266 17.333775 12.249266 16.617122 L 12.249266 12.498545 L 13.712785 12.498545 L 13.712785 16.617122 C 13.712785 17.00279 13.812079 17.28844 14.01067 17.47408 C 14.20926 17.659719 14.489873 17.752537 14.852517 17.752537 C 15.212283 17.752537 15.489298 17.660438 15.683572 17.476238 C 15.877845 17.292038 15.97498 17.005669 15.97498 16.617122 L 15.97498 12.498545 Z"
					      fill="#e9c941"/>
					<path d="M 17.4385 12.498545 L 17.4385 16.617122 C 17.4385 17.333775 17.200339 17.889245 16.724009 18.283548 C 16.24768 18.677851 15.623855 18.875 14.852517 18.875 C 14.072545 18.875 13.443684 18.677851 12.965915 18.283548 C 12.488147 17.889245 12.249266 17.333775 12.249266 16.617122 L 12.249266 12.498545 L 13.712785 12.498545 L 13.712785 16.617122 C 13.712785 17.00279 13.812079 17.28844 14.01067 17.47408 C 14.20926 17.659719 14.489873 17.752537 14.852517 17.752537 C 15.212283 17.752537 15.489298 17.660438 15.683572 17.476238 C 15.877845 17.292038 15.97498 17.005669 15.97498 16.617122 L 15.97498 12.498545 Z"
					      stroke="white" stroke-linecap="round" stroke-linejoin="round" stroke-width=".25"/>
				</g>
				<g id="Graphic_18">
					<path d="M 11.61786 18.875 L 7.2186674 18.875 L 7.2186674 17.925223 L 9.239101 15.801178 C 9.495254 15.507609 9.683769 15.245703 9.80465 15.015453 C 9.925531 14.785203 9.985971 14.585176 9.985971 14.415367 C 9.985971 14.173605 9.924812 13.980773 9.802492 13.836867 C 9.680171 13.69296 9.496693 13.621008 9.252053 13.621008 C 9.033315 13.621008 8.86135 13.713827 8.736151 13.899466 C 8.610953 14.085105 8.548355 14.321827 8.548355 14.60964 L 7.12369 14.60964 L 7.1150554 14.583737 C 7.100665 14.002355 7.290618 13.509484 7.684921 13.105107 C 8.079225 12.70073 8.601596 12.498545 9.252053 12.498545 C 9.942803 12.498545 10.481724 12.668352 10.868832 13.007971 C 11.25594 13.34759 11.44949 13.8124 11.44949 14.402416 C 11.44949 14.799597 11.346599 15.150723 11.140813 15.455804 C 10.935027 15.760885 10.55584 16.214183 10.00324 16.815712 L 9.152758 17.726634 L 9.16571 17.752537 L 11.61786 17.752537 Z"
					      fill="#eee"/>
					<path d="M 11.61786 18.875 L 7.2186674 18.875 L 7.2186674 17.925223 L 9.239101 15.801178 C 9.495254 15.507609 9.683769 15.245703 9.80465 15.015453 C 9.925531 14.785203 9.985971 14.585176 9.985971 14.415367 C 9.985971 14.173605 9.924812 13.980773 9.802492 13.836867 C 9.680171 13.69296 9.496693 13.621008 9.252053 13.621008 C 9.033315 13.621008 8.86135 13.713827 8.736151 13.899466 C 8.610953 14.085105 8.548355 14.321827 8.548355 14.60964 L 7.12369 14.60964 L 7.1150554 14.583737 C 7.100665 14.002355 7.290618 13.509484 7.684921 13.105107 C 8.079225 12.70073 8.601596 12.498545 9.252053 12.498545 C 9.942803 12.498545 10.481724 12.668352 10.868832 13.007971 C 11.25594 13.34759 11.44949 13.8124 11.44949 14.402416 C 11.44949 14.799597 11.346599 15.150723 11.140813 15.455804 C 10.935027 15.760885 10.55584 16.214183 10.00324 16.815712 L 9.152758 17.726634 L 9.16571 17.752537 L 11.61786 17.752537 Z"
					      stroke="white" stroke-linecap="round" stroke-linejoin="round" stroke-width=".25"/>
				</g>
				<g id="Graphic_19">
					<path d="M 17.555443 9.236919 L 17.563956 9.262459 C 17.535578 9.98893 17.32062 10.543708 16.919074 10.926808 C 16.517529 11.309908 15.935084 11.501455 15.171721 11.501455 C 14.405521 11.501455 13.782638 11.265923 13.303054 10.794852 C 12.82347 10.32378 12.583681 9.712249 12.583681 8.960237 L 12.583681 7.666217 C 12.583681 6.917044 12.814247 6.3062215 13.275386 5.8337315 C 13.736525 5.3612415 14.335996 5.125 15.073819 5.125 C 15.857045 5.125 16.455807 5.3222226 16.870123 5.716674 C 17.284438 6.111125 17.518552 6.6715775 17.57247 7.398049 L 17.563956 7.4235885 L 16.16352 7.4235885 C 16.143655 7.020624 16.053557 6.721243 15.893223 6.525436 C 15.732888 6.32963 15.459756 6.231728 15.073819 6.231728 C 14.747474 6.231728 14.490659 6.362973 14.303366 6.6254675 C 14.116072 6.887962 14.022427 7.232037 14.022427 7.657704 L 14.022427 8.960237 C 14.022427 9.388742 14.124586 9.734946 14.328906 9.998859 C 14.533226 10.262772 14.814161 10.394727 15.171721 10.394727 C 15.51793 10.394727 15.763394 10.3025 15.908121 10.118045 C 16.052848 9.93359 16.135142 9.639884 16.155006 9.236919 Z"
					      fill="#e9c941"/>
					<path d="M 17.555443 9.236919 L 17.563956 9.262459 C 17.535578 9.98893 17.32062 10.543708 16.919074 10.926808 C 16.517529 11.309908 15.935084 11.501455 15.171721 11.501455 C 14.405521 11.501455 13.782638 11.265923 13.303054 10.794852 C 12.82347 10.32378 12.583681 9.712249 12.583681 8.960237 L 12.583681 7.666217 C 12.583681 6.917044 12.814247 6.3062215 13.275386 5.8337315 C 13.736525 5.3612415 14.335996 5.125 15.073819 5.125 C 15.857045 5.125 16.455807 5.3222226 16.870123 5.716674 C 17.284438 6.111125 17.518552 6.6715775 17.57247 7.398049 L 17.563956 7.4235885 L 16.16352 7.4235885 C 16.143655 7.020624 16.053557 6.721243 15.893223 6.525436 C 15.732888 6.32963 15.459756 6.231728 15.073819 6.231728 C 14.747474 6.231728 14.490659 6.362973 14.303366 6.6254675 C 14.116072 6.887962 14.022427 7.232037 14.022427 7.657704 L 14.022427 8.960237 C 14.022427 9.388742 14.124586 9.734946 14.328906 9.998859 C 14.533226 10.262772 14.814161 10.394727 15.171721 10.394727 C 15.51793 10.394727 15.763394 10.3025 15.908121 10.118045 C 16.052848 9.93359 16.135142 9.639884 16.155006 9.236919 Z"
					      stroke="white" stroke-linecap="round" stroke-linejoin="round" stroke-width=".25"/>
				</g>
			</g>
		</g>
	</g>
</svg>
