<?xml version="1.0" encoding="UTF-8" standalone="no"?>
<!DOCTYPE svg PUBLIC "-//W3C//DTD SVG 1.1//EN" "http://www.w3.org/Graphics/SVG/1.1/DTD/svg11.dtd">
<svg version="1.1" xmlns="http://www.w3.org/2000/svg" viewBox="0 0 24 24" width="24" height="24">
	<defs/>
	<metadata>Produced by OmniGraffle 7.18.2\n2021-02-06 12:17:01 +0000</metadata>
	<g id="Logo" fill="none" stroke-dasharray="none" stroke="none" stroke-opacity="1" fill-opacity="1">
		<title>Logo</title>
		<g id="Logo_Layer_1">
			<title>Layer 1</title>
			<g id="Graphic_15">
				<circle cx="12" cy="12" r="12.0000191748228" fill="#1c275d"/>
			</g>
			<g id="Graphic_16">
				<path d="M 11.25 8.932692 L 8.896978 8.932692 L 8.896978 10.428571 L 11.67033 10.428571 L 11.67033 11.5 L 7.5 11.5 L 7.5 5.5 L 11.678571 5.5 L 11.678571 6.5714286 L 8.896978 6.5714286 L 8.896978 7.861264 L 11.25 7.861264 Z"
				      fill="#e9c941"/>
				<path d="M 11.25 8.932692 L 8.896978 8.932692 L 8.896978 10.428571 L 11.67033 10.428571 L 11.67033 11.5 L 7.5 11.5 L 7.5 5.5 L 11.678571 5.5 L 11.678571 6.5714286 L 8.896978 6.5714286 L 8.896978 7.861264 L 11.25 7.861264 Z"
				      stroke="white" stroke-linecap="round" stroke-linejoin="round" stroke-width=".25"/>
			</g>
			<g id="Graphic_17">
				<path d="M 17.068199 12.438224 L 17.068199 16.313647 C 17.068199 16.98799 16.844098 17.510666 16.39589 17.88169 C 15.947682 18.252715 15.360687 18.438224 14.634888 18.438224 C 13.900964 18.438224 13.30923 18.252715 12.859668 17.88169 C 12.410106 17.510666 12.185328 16.98799 12.185328 16.313647 L 12.185328 12.438224 L 13.562444 12.438224 L 13.562444 16.313647 C 13.562444 16.676547 13.655876 16.945332 13.842742 17.120011 C 14.029608 17.29469 14.293654 17.382029 14.634888 17.382029 C 14.973414 17.382029 15.234075 17.295368 15.416879 17.122042 C 15.599683 16.948717 15.691083 16.679255 15.691083 16.313647 L 15.691083 12.438224 Z"
				      fill="#e9c941"/>
				<path d="M 17.068199 12.438224 L 17.068199 16.313647 C 17.068199 16.98799 16.844098 17.510666 16.39589 17.88169 C 15.947682 18.252715 15.360687 18.438224 14.634888 18.438224 C 13.900964 18.438224 13.30923 18.252715 12.859668 17.88169 C 12.410106 17.510666 12.185328 16.98799 12.185328 16.313647 L 12.185328 12.438224 L 13.562444 12.438224 L 13.562444 16.313647 C 13.562444 16.676547 13.655876 16.945332 13.842742 17.120011 C 14.029608 17.29469 14.293654 17.382029 14.634888 17.382029 C 14.973414 17.382029 15.234075 17.295368 15.416879 17.122042 C 15.599683 16.948717 15.691083 16.679255 15.691083 16.313647 L 15.691083 12.438224 Z"
				      stroke="white" stroke-linecap="round" stroke-linejoin="round" stroke-width=".25"/>
			</g>
			<g id="Graphic_18">
				<path d="M 11.5912 18.438224 L 7.4517275 18.438224 L 7.4517275 17.54452 L 9.352879 15.545875 C 9.593909 15.269638 9.771294 15.023195 9.885038 14.806538 C 9.998783 14.589882 10.055654 14.401664 10.055654 14.24188 C 10.055654 14.01439 9.998106 13.832944 9.883007 13.697533 C 9.767908 13.562123 9.595263 13.494419 9.365065 13.494419 C 9.159242 13.494419 8.997429 13.581757 8.879622 13.756437 C 8.761815 13.931116 8.702912 14.153862 8.702912 14.424683 L 7.362357 14.424683 L 7.354233 14.40031 C 7.340692 13.853252 7.5194305 13.389478 7.890455 13.008975 C 8.261479 12.628473 8.753011 12.438224 9.365065 12.438224 C 10.015035 12.438224 10.522139 12.598006 10.886392 12.917574 C 11.250646 13.237142 11.43277 13.674511 11.43277 14.229693 C 11.43277 14.603426 11.335953 14.933822 11.142317 15.220892 C 10.94868 15.507961 10.591879 15.934497 10.071904 16.500512 L 9.271633 17.357655 L 9.28382 17.382029 L 11.5912 17.382029 Z"
				      fill="#eee"/>
				<path d="M 11.5912 18.438224 L 7.4517275 18.438224 L 7.4517275 17.54452 L 9.352879 15.545875 C 9.593909 15.269638 9.771294 15.023195 9.885038 14.806538 C 9.998783 14.589882 10.055654 14.401664 10.055654 14.24188 C 10.055654 14.01439 9.998106 13.832944 9.883007 13.697533 C 9.767908 13.562123 9.595263 13.494419 9.365065 13.494419 C 9.159242 13.494419 8.997429 13.581757 8.879622 13.756437 C 8.761815 13.931116 8.702912 14.153862 8.702912 14.424683 L 7.362357 14.424683 L 7.354233 14.40031 C 7.340692 13.853252 7.5194305 13.389478 7.890455 13.008975 C 8.261479 12.628473 8.753011 12.438224 9.365065 12.438224 C 10.015035 12.438224 10.522139 12.598006 10.886392 12.917574 C 11.250646 13.237142 11.43277 13.674511 11.43277 14.229693 C 11.43277 14.603426 11.335953 14.933822 11.142317 15.220892 C 10.94868 15.507961 10.591879 15.934497 10.071904 16.500512 L 9.271633 17.357655 L 9.28382 17.382029 L 11.5912 17.382029 Z"
				      stroke="white" stroke-linecap="round" stroke-linejoin="round" stroke-width=".25"/>
			</g>
			<g id="Graphic_19">
				<path d="M 17.178238 9.369159 L 17.186248 9.393191 C 17.159546 10.076772 16.957278 10.598797 16.57944 10.959279 C 16.2016 11.319761 15.653542 11.5 14.935247 11.5 C 14.214282 11.5 13.628173 11.278373 13.176903 10.835113 C 12.725632 10.391854 12.5 9.816425 12.5 9.108812 L 12.5 7.891188 C 12.5 7.186245 12.716954 6.611484 13.150868 6.166889 C 13.584782 5.722294 14.148862 5.5 14.843124 5.5 C 15.58011 5.5 16.143523 5.685579 16.533378 6.056742 C 16.923233 6.427906 17.143524 6.95527 17.19426 7.638852 L 17.186248 7.662884 L 15.868491 7.662884 C 15.8498 7.28371 15.76502 7.002004 15.614152 6.817757 C 15.463284 6.6335104 15.206277 6.5413885 14.843124 6.5413885 C 14.536047 6.5413885 14.294393 6.664885 14.118158 6.9118825 C 13.941922 7.15888 13.853805 7.4826415 13.853805 7.883178 L 13.853805 9.108812 C 13.853805 9.512018 13.949932 9.837782 14.14219 10.086115 C 14.334447 10.334447 14.598797 10.458611 14.935247 10.458611 C 15.261016 10.458611 15.491989 10.37183 15.62817 10.198264 C 15.764353 10.024699 15.841789 9.748333 15.86048 9.369159 Z"
				      fill="#e9c941"/>
				<path d="M 17.178238 9.369159 L 17.186248 9.393191 C 17.159546 10.076772 16.957278 10.598797 16.57944 10.959279 C 16.2016 11.319761 15.653542 11.5 14.935247 11.5 C 14.214282 11.5 13.628173 11.278373 13.176903 10.835113 C 12.725632 10.391854 12.5 9.816425 12.5 9.108812 L 12.5 7.891188 C 12.5 7.186245 12.716954 6.611484 13.150868 6.166889 C 13.584782 5.722294 14.148862 5.5 14.843124 5.5 C 15.58011 5.5 16.143523 5.685579 16.533378 6.056742 C 16.923233 6.427906 17.143524 6.95527 17.19426 7.638852 L 17.186248 7.662884 L 15.868491 7.662884 C 15.8498 7.28371 15.76502 7.002004 15.614152 6.817757 C 15.463284 6.6335104 15.206277 6.5413885 14.843124 6.5413885 C 14.536047 6.5413885 14.294393 6.664885 14.118158 6.9118825 C 13.941922 7.15888 13.853805 7.4826415 13.853805 7.883178 L 13.853805 9.108812 C 13.853805 9.512018 13.949932 9.837782 14.14219 10.086115 C 14.334447 10.334447 14.598797 10.458611 14.935247 10.458611 C 15.261016 10.458611 15.491989 10.37183 15.62817 10.198264 C 15.764353 10.024699 15.841789 9.748333 15.86048 9.369159 Z"
				      stroke="white" stroke-linecap="round" stroke-linejoin="round" stroke-width=".25"/>
			</g>
		</g>
	</g>
</svg>
