<?xml version="1.0" encoding="UTF-8" standalone="no"?>
<!DOCTYPE svg PUBLIC "-//W3C//DTD SVG 1.1//EN" "http://www.w3.org/Graphics/SVG/1.1/DTD/svg11.dtd">
<svg version="1.1" xmlns="http://www.w3.org/2000/svg" viewBox="0 0 64 64" width="64" height="64">
	<defs/>
	<metadata>Produced by OmniGraffle 7.18.2\n2021-02-10 10:32:17 +0000</metadata>
	<g id="CC4" fill-opacity="1" stroke-opacity="1" stroke="none" stroke-dasharray="none" fill="none">
		<title>CC</title>
		<g id="CC4_Layer_1">
			<title>Layer 1</title>
			<g id="Group_30">
				<g id="Graphic_27">
					<path d="M 58.03811 56.92217 L 51.34604 48.61478 C 42.96838 55.380394 30.662465 54.87044 22.87698 47.08492 C 14.545758 38.753746 14.545758 25.246254 22.87698 16.91508 C 30.662465 9.129558 42.96838 8.619606 51.34604 15.385221 L 58.03811 7.077832 C 45.471614 -3.0705917 27.012744 -2.3056627 15.334516 9.372619 C 2.8376836 21.86938 2.8376836 42.13062 15.334516 54.62738 C 27.012744 66.30566 45.471614 67.07059 58.03811 56.92217 Z"
					      fill="#1c275d"/>
				</g>
				<g id="Graphic_29">
					<path d="M 48.00001 44.461084 L 41.30794 36.153695 C 39.213525 37.8451 36.137047 37.71761 34.190676 35.77123 C 32.10787 33.688436 32.10787 30.311564 34.190676 28.22877 C 36.137047 26.28239 39.213525 26.1549 41.30794 27.846305 L 48.00001 19.538916 C 41.71676 14.464704 32.487326 14.847169 26.648212 20.68631 C 20.399796 26.93469 20.399796 37.06531 26.648212 43.31369 C 32.487326 49.15283 41.71676 49.535296 48.00001 44.461084 Z"
					      fill="#c0a635"/>
				</g>
			</g>
		</g>
	</g>
</svg>
